<?xml version="1.0" encoding="utf-8"?>
<!-- Generator: Adobe Illustrator 19.0.0, SVG Export Plug-In . SVG Version: 6.00 Build 0)  -->
<svg version="1.1" id="Layer_1" xmlns="http://www.w3.org/2000/svg" xmlns:xlink="http://www.w3.org/1999/xlink" x="0px" y="0px"
	 viewBox="0 0 24 24" style="enable-background:new 0 0 24 24;" xml:space="preserve">
<polygon id="XMLID_4121_" style="fill:#505050;" points="8,12 12.9,7.1 14.4,8.5 10.8,12 14.4,15.5 12.9,16.9 "/>
<rect id="XMLID_1048_" x="0" y="0" style="fill:none;" width="24" height="24"/>
<path id="XMLID_19_" style="fill:#505050;" d="M22,12c0-5.5-4.5-10-10-10C6.5,2,2,6.5,2,12s4.5,10,10,10C17.5,22,22,17.5,22,12z
	 M4,12c0-4.4,3.6-8,8-8s8,3.6,8,8s-3.6,8-8,8S4,16.4,4,12z"/>
</svg>
