<?xml version="1.0" encoding="utf-8"?>
<!-- Generator: Adobe Illustrator 19.0.0, SVG Export Plug-In . SVG Version: 6.00 Build 0)  -->
<svg version="1.1" id="Layer_1" xmlns="http://www.w3.org/2000/svg" xmlns:xlink="http://www.w3.org/1999/xlink" x="0px" y="0px"
	 viewBox="0 0 24 24" style="enable-background:new 0 0 24 24;" xml:space="preserve">
<g id="XMLID_3653_">
	<rect id="XMLID_3658_" style="fill:none;" width="24" height="24"/>
	<path id="XMLID_3654_" style="fill:#505050;" d="M12,2C6.5,2,2,6.5,2,12c0,5.5,4.5,10,10,10c5.5,0,10-4.5,10-10C22,6.5,17.5,2,12,2
		z M12,4c1.8,0,3.5,0.6,4.9,1.7L5.7,16.9C4.6,15.5,4,13.8,4,12C4,7.6,7.6,4,12,4z M12,20c-1.8,0-3.5-0.6-4.9-1.7L18.3,7.1
		C19.4,8.5,20,10.2,20,12C20,16.4,16.4,20,12,20z"/>
</g>
</svg>
