<?xml version="1.0" encoding="utf-8"?>
<!-- Generator: Adobe Illustrator 19.0.0, SVG Export Plug-In . SVG Version: 6.00 Build 0)  -->
<svg version="1.1" id="Layer_1" xmlns="http://www.w3.org/2000/svg" xmlns:xlink="http://www.w3.org/1999/xlink" x="0px" y="0px"
	 viewBox="0 0 24 24" style="enable-background:new 0 0 24 24;" xml:space="preserve">
<rect id="XMLID_378_" style="fill:none;" width="24" height="24"/>
<g id="XMLID_2_">
	<path id="XMLID_3_" style="fill:#BABABA;" d="M17,18c-1.3,0-2.7,0-4,0c-2.2,0-4-1.8-4-4s1.8-4,4-4c0-0.8-0.5-1.6-1.3-1.9
		C9,8.7,7,11.2,7,14c0,3.3,2.7,6,6,6c1.3,0,2.7,0,4,0c3.3,0,6-2.7,6-6c0-2.6-1.7-4.9-4.2-5.7C19,9,19,9.8,19,10.5
		C22.5,12.6,21.1,18,17,18z"/>
	<path id="XMLID_4_" style="fill:#BABABA;" d="M11,6C9.7,6,8.3,6,7,6c-4.1,0-5.5,5.4-2,7.5C5,14.2,5,15,5.2,15.7
		C2.7,14.9,1,12.6,1,10c0-3.3,2.7-6,6-6c1.3,0,2.7,0,4,0c3.3,0,6,2.7,6,6c0,2.8-2,5.3-4.7,5.9c-0.8-0.3-1.3-1-1.3-1.9
		c2.2,0,4-1.8,4-4S13.2,6,11,6z"/>
</g>
</svg>
