<?xml version="1.0" encoding="utf-8"?>
<!-- Generator: Adobe Illustrator 19.0.0, SVG Export Plug-In . SVG Version: 6.00 Build 0)  -->
<svg version="1.1" id="Layer_1" xmlns="http://www.w3.org/2000/svg" xmlns:xlink="http://www.w3.org/1999/xlink" x="0px" y="0px"
	 viewBox="0 0 24 24" style="enable-background:new 0 0 24 24;" xml:space="preserve">
<path id="XMLID_543_" style="fill:none;" d="M0,0h24v24H0V0z"/>
<polygon id="XMLID_542_" style="fill:#1976D2;" points="12,22 16,18 13,18 13,12 11,12 11,18 8,18 "/>
<path id="XMLID_5_" style="fill:#1976D2;" d="M21.4,7.4C20.9,4.4,18.2,2,15,2c-2,0-3.8,0.9-5,2.4C9.4,4.1,8.7,4,8,4
	C5.9,4,4.1,5.3,3.4,7.1C1.4,7.7,0,9.4,0,11.5C0,14,2,16,4.5,16H9v-2H4.5C3.1,14,2,12.9,2,11.5S3.1,9,4.5,9C4.7,9,4.8,9,5,9.1
	C5,9,5,9,5,9c0-1.7,1.3-3,3-3c1.1,0,2.1,0.6,2.6,1.5C11.1,5.5,12.9,4,15,4c2.5,0,4.5,2,4.5,4.5c0,0.2,0,0.3,0,0.5c0,0,0,0,0,0
	c1.4,0,2.5,1.1,2.5,2.5S20.9,14,19.5,14H15v2h4.5c2.5,0,4.5-2,4.5-4.5C24,9.7,22.9,8.1,21.4,7.4z"/>
</svg>
