<?xml version="1.0" encoding="utf-8"?>
<!-- Generator: Adobe Illustrator 19.0.0, SVG Export Plug-In . SVG Version: 6.00 Build 0)  -->
<svg version="1.1" id="Layer_1" xmlns="http://www.w3.org/2000/svg" xmlns:xlink="http://www.w3.org/1999/xlink" x="0px" y="0px"
	 viewBox="0 0 24 24" style="enable-background:new 0 0 24 24;" xml:space="preserve">
<rect id="XMLID_2_" style="fill:none;" width="24" height="24"/>
<path id="XMLID_14_" style="fill:#2196F3;" d="M12,2C6.5,2,2,6.5,2,12c0,5.5,4.5,10,10,10c5.5,0,10-4.5,10-10C22,6.5,17.5,2,12,2z
	 M12,20c-4.4,0-8-3.6-8-8s3.6-8,8-8s8,3.6,8,8S16.4,20,12,20z"/>
<polygon id="XMLID_9_" style="fill:#2196F3;" points="8.5,16.5 8.5,7.5 10.5,7.5 10.5,10.2 13.2,7.5 16,7.5 11.8,11.7 16.6,16.5 
	13.8,16.5 10.5,13.2 10.5,16.5 "/>
</svg>
