<?xml version="1.0" encoding="utf-8"?>
<!-- Generator: Adobe Illustrator 19.0.0, SVG Export Plug-In . SVG Version: 6.00 Build 0)  -->
<svg version="1.1" id="Layer_1" xmlns="http://www.w3.org/2000/svg" xmlns:xlink="http://www.w3.org/1999/xlink" x="0px" y="0px"
	 viewBox="0 0 24 24" style="enable-background:new 0 0 24 24;" xml:space="preserve">
<rect id="XMLID_3056_" style="fill:none;" width="24" height="24"/>
<path id="XMLID_3050_" style="fill:#1976D2;" d="M15,12c2.2,0,4-1.8,4-4s-1.8-4-4-4s-4,1.8-4,4S12.8,12,15,12z M15,14
	c-2.7,0-8,1.3-8,4v2h16v-2C23,15.3,17.7,14,15,14z"/>
<polygon id="XMLID_28_" style="fill:#1976D2;" points="5.2,13.1 7,11.4 8,12.5 4.5,16 1,12.5 2,11.4 3.7,13.1 3.8,10 3.7,6.9 2,8.6 
	1,7.5 4.5,4 8,7.5 7,8.6 5.2,6.9 5.2,10 "/>
<path id="XMLID_17_" style="fill:#2196F3;" d="M2,8.6"/>
</svg>
