<?xml version="1.0" encoding="utf-8"?>
<!-- Generator: Adobe Illustrator 19.0.0, SVG Export Plug-In . SVG Version: 6.00 Build 0)  -->
<svg version="1.1" id="Layer_1" xmlns="http://www.w3.org/2000/svg" xmlns:xlink="http://www.w3.org/1999/xlink" x="0px" y="0px"
	 viewBox="0 0 24 24" style="enable-background:new 0 0 24 24;" xml:space="preserve">
<rect id="XMLID_3056_" style="fill:none;" width="24" height="24"/>
<g id="XMLID_1_">
	<path id="XMLID_3050_" style="fill:#505050;" d="M12,13c1.7,0,3-1.3,3-3s-1.3-3-3-3s-3,1.3-3,3S10.3,13,12,13z M12,14.5
		c-2,0-6,1-6,3V19h12v-1.5C18,15.5,14,14.5,12,14.5z"/>
	<path id="XMLID_2_" style="fill:#505050;" d="M20,10c1.1,0,2-0.9,2-2s-0.9-2-2-2s-2,0.9-2,2S18.9,10,20,10z M20,11
		c-1.3,0-4,0.7-4,2v1h8v-1C24,11.7,21.3,11,20,11z"/>
	<path id="XMLID_14_" style="fill:#505050;" d="M4,10c1.1,0,2-0.9,2-2S5.1,6,4,6S2,6.9,2,8S2.9,10,4,10z M4,11c-1.3,0-4,0.7-4,2v1h8
		v-1C8,11.7,5.3,11,4,11z"/>
</g>
</svg>
