<?xml version="1.0" encoding="utf-8"?>
<!-- Generator: Adobe Illustrator 19.0.0, SVG Export Plug-In . SVG Version: 6.00 Build 0)  -->
<svg version="1.1" id="Layer_1" xmlns="http://www.w3.org/2000/svg" xmlns:xlink="http://www.w3.org/1999/xlink" x="0px" y="0px"
	 viewBox="0 0 24 24" style="enable-background:new 0 0 24 24;" xml:space="preserve">
<path id="XMLID_2867_" style="fill:none;" d="M0,0h24v24H0V0z"/>
<path id="XMLID_5_" style="fill:#FFFFFF;" d="M22,8h-2V6c0-1.1-0.9-2-2-2h-8L8,2H2C0.9,2,0,2.9,0,4l0,12c0,1.1,0.9,2,2,2h2l0,2
	c0,1.1,0.9,2,2,2h16c1.1,0,2-0.9,2-2V10C24,8.9,23.1,8,22,8z M2,16V6h16v10H2z M22,20H6v-2h12c1.1,0,2-0.9,2-2v-6h2V20z"/>
</svg>
