<?xml version="1.0" encoding="utf-8"?>
<!-- Generator: Adobe Illustrator 19.0.0, SVG Export Plug-In . SVG Version: 6.00 Build 0)  -->
<svg version="1.1" id="Layer_1" xmlns="http://www.w3.org/2000/svg" xmlns:xlink="http://www.w3.org/1999/xlink" x="0px" y="0px"
	 viewBox="0 0 24 24" style="enable-background:new 0 0 24 24;" xml:space="preserve">
<path id="XMLID_3057_" style="fill:none;" d="M0,0h24v24H0V0z"/>
<g id="XMLID_3047_">
	<path id="XMLID_3048_" style="fill:none;" d="M0,0h24v24H0V0z"/>
</g>
<polygon id="XMLID_8_" style="fill:#1976D2;" points="23,12 19,8 19,11 13,11 13,5 16,5 12,1 8,5 11,5 11,11 5,11 5,8 1,12 5,16 
	5,13 11,13 11,19 8,19 12,23 16,19 13,19 13,13 19,13 19,16 "/>
</svg>
