<?xml version="1.0" encoding="utf-8"?>
<!-- Generator: Adobe Illustrator 19.0.0, SVG Export Plug-In . SVG Version: 6.00 Build 0)  -->
<svg version="1.1" id="Layer_1" xmlns="http://www.w3.org/2000/svg" xmlns:xlink="http://www.w3.org/1999/xlink" x="0px" y="0px"
	 viewBox="0 0 24 24" style="enable-background:new 0 0 24 24;" xml:space="preserve">
<path id="XMLID_18_" style="fill:none;" d="M0,0h24v24H0V0z"/>
<path id="XMLID_8_" style="fill:#1976D2;" d="M0,3v18h24V3H0z M4,19H2v-2h2V19z M4,15H2v-2h2V15z M4,11H2V9h2V11z M4,7H2V5h2V7z
	 M8,19H6v-2h2V19z M8,15H6v-2h2V15z M8,11H6V9h2V11z M8,7H6V5h2V7z M22,19H10V5h12V19z"/>
<path id="XMLID_1_" style="fill:#1976D2;" d="M15,12.7l-2.1-2.1L11.5,12l3.5,3.5l5.7-5.7l-1.4-1.4L15,12.7z"/>
</svg>
