<?xml version="1.0" encoding="utf-8"?>
<!-- Generator: Adobe Illustrator 19.0.0, SVG Export Plug-In . SVG Version: 6.00 Build 0)  -->
<svg version="1.1" id="Layer_3" xmlns="http://www.w3.org/2000/svg" xmlns:xlink="http://www.w3.org/1999/xlink" x="0px" y="0px"
	 viewBox="0 0 24 24" style="enable-background:new 0 0 24 24;" xml:space="preserve">
<rect id="XMLID_106_" style="fill:none;" width="24" height="24"/>
<path id="XMLID_430_" style="fill:#BABABA;" d="M20.5,3C19.7,3,19,3.7,19,4.5V12c0,0.3-0.2,0.5-0.5,0.5S18,12.3,18,12V2.5
	C18,1.7,17.3,1,16.5,1S15,1.7,15,2.5V12c0,0.3-0.2,0.5-0.5,0.5S14,12.3,14,12V1.5C14,0.7,13.3,0,12.5,0S11,0.7,11,1.5V12
	c0,0.3-0.2,0.5-0.5,0.5S10,12.3,10,12V3.5C10,2.7,9.3,2,8.5,2S7,2.7,7,3.5v10.7c0,0.8-0.8,1.2-1.5,0.9c-1.2-0.7-3.9-1.9-5.1-0.6
	c-0.2,0.2-0.2,0.5,0,0.7l7.5,7.6c0.8,0.8,1.8,1.2,2.9,1.2H15c3.9,0,7-3.2,7-7V4.5C22,3.7,21.3,3,20.5,3z"/>
</svg>
