<?xml version="1.0" encoding="utf-8"?>
<!-- Generator: Adobe Illustrator 22.1.0, SVG Export Plug-In . SVG Version: 6.00 Build 0)  -->
<svg version="1.1" id="Layer_1" xmlns="http://www.w3.org/2000/svg" xmlns:xlink="http://www.w3.org/1999/xlink" x="0px" y="0px"
	 viewBox="0 0 24 24" style="enable-background:new 0 0 24 24;" xml:space="preserve">
<rect id="XMLID_80_" style="fill:none;" width="24" height="24"/>
<polygon style="fill:#505050;" points="8.5,16.1 6.4,14 8.5,11.8 8.5,11.8 8.5,11.8 7.1,10.4 5,12.6 2.9,10.4 1.5,11.8 3.6,14 
	1.5,16.1 2.9,17.5 5,15.4 7.1,17.5 7.1,17.5 7.1,17.5 "/>
<polygon id="XMLID_9_" style="fill:#505050;" points="17,14.7 14.9,12.6 13.5,14 17,17.5 22.7,11.8 21.2,10.4 "/>
<g>
	<polygon style="fill:#505050;" points="18,21 6,21 6,19 5,18 4,19 4,23 20,23 20,18 18,20 	"/>
	<polygon style="fill:#505050;" points="4,1 4,9 5,10 6,9 6,3 18,3 18,11 20,9 20,1 	"/>
</g>
</svg>
