<?xml version="1.0" encoding="utf-8"?>
<!-- Generator: Adobe Illustrator 19.0.0, SVG Export Plug-In . SVG Version: 6.00 Build 0)  -->
<svg version="1.1" id="Layer_2" xmlns="http://www.w3.org/2000/svg" xmlns:xlink="http://www.w3.org/1999/xlink" x="0px" y="0px"
	 viewBox="0 0 68 24" style="enable-background:new 0 0 68 24;" xml:space="preserve">
<path id="XMLID_82_" style="fill:#64B5F6;" d="M65,0H3C1.4,0,0,1.4,0,3v18c0,1.6,1.4,3,3,3h62c1.6,0,3-1.4,3-3V3C68,1.4,66.6,0,65,0
	z"/>
<g id="XMLID_17_">
	<path id="XMLID_63_" style="fill:#FFFFFF;" d="M15.8,17h-2.2V9.1H9.6V17H7.3V7.2h8.5V17z"/>
	<path id="XMLID_65_" style="fill:#FFFFFF;" d="M20.3,13.6V17h-2.2V7.2h3.5c2.5,0,3.7,1,3.7,3.1c0,1-0.4,1.8-1.1,2.4
		s-1.7,0.9-2.8,0.9H20.3z M20.3,8.9v3.1h0.9c1.2,0,1.8-0.5,1.8-1.5c0-1-0.6-1.5-1.8-1.5H20.3z"/>
	<path id="XMLID_68_" style="fill:#FFFFFF;" d="M30.8,17.2c-1.4,0-2.5-0.5-3.4-1.4c-0.9-0.9-1.3-2.1-1.3-3.6c0-1.5,0.4-2.8,1.3-3.8
		S29.4,7,30.9,7c1.4,0,2.5,0.5,3.4,1.4s1.3,2.1,1.3,3.6c0,1.5-0.4,2.8-1.3,3.7S32.2,17.2,30.8,17.2z M30.9,8.9
		c-0.8,0-1.4,0.3-1.8,0.9s-0.7,1.4-0.7,2.3c0,1,0.2,1.7,0.7,2.3c0.5,0.6,1.1,0.8,1.8,0.8c0.8,0,1.4-0.3,1.8-0.8
		c0.4-0.5,0.7-1.3,0.7-2.3c0-1-0.2-1.8-0.6-2.4C32.2,9.2,31.6,8.9,30.9,8.9z"/>
	<path id="XMLID_71_" style="fill:#FFFFFF;" d="M43.1,17h-5.9V7.2h5.7V9h-3.4v2.2h3.2V13h-3.2v2.2h3.7V17z"/>
	<path id="XMLID_73_" style="fill:#FFFFFF;" d="M52.8,17H50l-2.9-4.3c-0.1-0.1-0.1-0.3-0.3-0.5h0V17h-2.2V7.2h2.2v4.6h0
		c0.1-0.1,0.1-0.3,0.3-0.5l2.7-4.1h2.6l-3.4,4.7L52.8,17z"/>
	<path id="XMLID_75_" style="fill:#FFFFFF;" d="M60.7,9h-2.8v8h-2.2V9h-2.8V7.2h7.8V9z"/>
</g>
</svg>
