<?xml version="1.0" encoding="utf-8"?>
<!-- Generator: Adobe Illustrator 19.0.0, SVG Export Plug-In . SVG Version: 6.00 Build 0)  -->
<svg version="1.1" id="Layer_2" xmlns="http://www.w3.org/2000/svg" xmlns:xlink="http://www.w3.org/1999/xlink" x="0px" y="0px"
	 viewBox="0 0 24 24" style="enable-background:new 0 0 24 24;" xml:space="preserve">
<rect id="XMLID_1_" style="fill:none;" width="24" height="24"/>
<path id="XMLID_8_" style="fill:#505050;" d="M12,2C6.5,2,2,6.5,2,12c0,5.5,4.5,10,10,10s10-4.5,10-10C22,6.5,17.5,2,12,2z M13,19
	h-2v-2h2V19z M15.1,11.2l-0.9,0.9C13.5,12.9,13,13.5,13,15h-2v-0.5c0-1.1,0.5-2.1,1.2-2.8l1.2-1.3C13.8,10,14,9.5,14,9
	c0-1.1-0.9-2-2-2s-2,0.9-2,2H8c0-2.2,1.8-4,4-4s4,1.8,4,4C16,9.9,15.6,10.7,15.1,11.2z"/>
</svg>
