<?xml version="1.0" encoding="utf-8"?>
<!-- Generator: Adobe Illustrator 19.0.0, SVG Export Plug-In . SVG Version: 6.00 Build 0)  -->
<svg version="1.1" id="Layer_2" xmlns="http://www.w3.org/2000/svg" xmlns:xlink="http://www.w3.org/1999/xlink" x="0px" y="0px"
	 viewBox="-451 501 120 24" style="enable-background:new -451 501 120 24;" xml:space="preserve">
<path id="XMLID_81_" style="fill:#FF8765;" d="M-334,501h-114c-1.6,0-3,1.4-3,3v18c0,1.6,1.4,3,3,3h114c1.6,0,3-1.4,3-3v-18
	C-331,502.4-332.4,501-334,501z"/>
<g id="XMLID_14_">
	<path id="XMLID_34_" style="fill:#FFFFFF;" d="M-435.3,518h-2.2v-4h-4.1v4h-2.2v-9.8h2.2v3.9h4.1v-3.9h2.2V518z"/>
	<path id="XMLID_36_" style="fill:#FFFFFF;" d="M-424.5,518h-2.4l-0.7-2.2h-3.5l-0.7,2.2h-2.4l3.6-9.8h2.6L-424.5,518z
		 M-428.1,514.1l-1.1-3.3c-0.1-0.2-0.1-0.5-0.2-0.9h-0.1c0,0.3-0.1,0.6-0.2,0.9l-1.1,3.3H-428.1z"/>
	<path id="XMLID_39_" style="fill:#FFFFFF;" d="M-410.2,520.7h-1.9V518h-6.2v2.7h-1.9v-4.5h0.9c1.3-2.3,2-5,2.1-8h5.7v8h1.4v4.5
		H-410.2z M-413.8,516.2V510h-1.7c-0.1,0.9-0.2,1.9-0.5,3.1c-0.3,1.2-0.7,2.2-1.1,3.1C-417.1,516.2-413.8,516.2-413.8,516.2z"/>
	<path id="XMLID_42_" style="fill:#FFFFFF;" d="M-404.4,518.2c-1.4,0-2.5-0.5-3.4-1.4c-0.9-0.9-1.3-2.1-1.3-3.6s0.4-2.8,1.3-3.8
		c0.9-1,2.1-1.4,3.6-1.4c1.4,0,2.5,0.5,3.4,1.4c0.9,0.9,1.3,2.1,1.3,3.6s-0.4,2.8-1.3,3.7C-401.7,517.6-403,518.2-404.4,518.2z
		 M-404.3,509.9c-0.8,0-1.4,0.3-1.8,0.9c-0.4,0.6-0.7,1.4-0.7,2.3c0,1,0.2,1.7,0.7,2.3c0.5,0.6,1.1,0.8,1.8,0.8
		c0.8,0,1.4-0.3,1.8-0.8s0.7-1.3,0.7-2.3s-0.2-1.8-0.6-2.4C-403,510.2-403.6,509.9-404.3,509.9z"/>
	<path id="XMLID_45_" style="fill:#FFFFFF;" d="M-395.7,514.6v3.4h-2.2v-9.8h3.5c2.5,0,3.7,1,3.7,3.1c0,1-0.4,1.8-1.1,2.4
		c-0.7,0.6-1.7,0.9-2.8,0.9C-394.6,514.6-395.7,514.6-395.7,514.6z M-395.7,509.9v3.1h0.9c1.2,0,1.8-0.5,1.8-1.5s-0.6-1.5-1.8-1.5
		h-0.9V509.9z"/>
	<path id="XMLID_48_" style="fill:#FFFFFF;" d="M-381.6,518h-2.4l-0.7-2.2h-3.5l-0.6,2.2h-2.4l3.6-9.8h2.6L-381.6,518z
		 M-385.2,514.1l-1.1-3.3c-0.1-0.2-0.1-0.5-0.2-0.9h-0.1c0,0.3-0.1,0.6-0.2,0.9l-1.1,3.3H-385.2z"/>
	<path id="XMLID_51_" style="fill:#FFFFFF;" d="M-380.3,518v-9.8h6.3v1.8h-4.1v2.1h1.9c1,0,1.9,0.2,2.4,0.7s0.9,1.2,0.9,2
		c0,1-0.3,1.7-0.9,2.3c-0.6,0.5-1.5,0.8-2.6,0.8L-380.3,518L-380.3,518z M-378.1,513.8v2.6h1.3c1,0,1.6-0.5,1.6-1.4
		s-0.5-1.3-1.5-1.3L-378.1,513.8L-378.1,513.8z"/>
	<path id="XMLID_54_" style="fill:#FFFFFF;" d="M-367.3,518.2c-1.4,0-2.5-0.5-3.4-1.4c-0.9-0.9-1.3-2.1-1.3-3.6s0.4-2.8,1.3-3.8
		c0.9-1,2.1-1.4,3.5-1.4c1.4,0,2.5,0.5,3.4,1.4c0.9,0.9,1.3,2.1,1.3,3.6s-0.4,2.8-1.3,3.7C-364.7,517.6-365.9,518.2-367.3,518.2z
		 M-367.2,509.9c-0.8,0-1.4,0.3-1.8,0.9c-0.4,0.6-0.7,1.4-0.7,2.3c0,1,0.2,1.7,0.7,2.3c0.5,0.6,1.1,0.8,1.8,0.8
		c0.8,0,1.4-0.3,1.8-0.8s0.7-1.3,0.7-2.3s-0.2-1.8-0.6-2.4C-365.9,510.2-366.5,509.9-367.2,509.9z"/>
	<path id="XMLID_57_" style="fill:#FFFFFF;" d="M-354.5,510h-2.8v8h-2.2v-8h-2.8v-1.8h7.8V510z"/>
	<path id="XMLID_59_" style="fill:#FFFFFF;" d="M-345,518h-2.8l-2.9-4.3c-0.1-0.1-0.1-0.3-0.3-0.5l0,0v4.8h-2.2v-9.8h2.2v4.6l0,0
		c0.1-0.1,0.1-0.3,0.3-0.5l2.7-4.1h2.6l-3.4,4.7L-345,518z"/>
	<path id="XMLID_61_" style="fill:#FFFFFF;" d="M-338.2,518h-5.9v-9.8h5.7v1.8h-3.4v2.2h3.2v1.8h-3.2v2.2h3.7v1.8H-338.2z"/>
</g>
</svg>
