<?xml version="1.0" encoding="utf-8"?>
<!-- Generator: Adobe Illustrator 19.0.0, SVG Export Plug-In . SVG Version: 6.00 Build 0)  -->
<svg version="1.1" id="Layer_1" xmlns="http://www.w3.org/2000/svg" xmlns:xlink="http://www.w3.org/1999/xlink" x="0px" y="0px"
	 viewBox="0 0 24 24" style="enable-background:new 0 0 24 24;" xml:space="preserve">
<rect id="XMLID_80_" style="fill:none;" width="24" height="24"/>
<g id="XMLID_1_">
	<path id="XMLID_2_" style="fill:#505050;" d="M24,11.6L24,11.6C20.8,8.8,16.6,7,12,7S3.2,8.8,0,11.6l0,0l1.3,1.5
		c1.8-1.6,4-2.8,6.3-3.5C7.2,10.3,7,11.1,7,12c0,2.8,2.2,5,5,5s5-2.2,5-5c0-0.9-0.2-1.7-0.6-2.4c2.3,0.7,4.5,1.8,6.3,3.5L24,11.6z
		 M12,15c-1.7,0-3-1.3-3-3s1.3-3,3-3s3,1.3,3,3S13.7,15,12,15z"/>
	<path id="XMLID_20_" style="fill:#505050;" d="M20,1v5.7c-0.5-0.3-1.5-0.5-2-0.7V3H6v2.9C5.5,6.1,4.5,6.4,4,6.7V1H20z"/>
	<path id="XMLID_21_" style="fill:#505050;" d="M18,16v5H6v-5c-0.5-0.2-1.5-0.5-2-0.8V23h16v-7.9C19.5,15.4,18.5,15.7,18,16z"/>
</g>
</svg>
