<?xml version="1.0" encoding="utf-8"?>
<!-- Generator: Adobe Illustrator 19.0.0, SVG Export Plug-In . SVG Version: 6.00 Build 0)  -->
<svg version="1.1" id="Layer_1" xmlns="http://www.w3.org/2000/svg" xmlns:xlink="http://www.w3.org/1999/xlink" x="0px" y="0px"
	 viewBox="0 0 24 24" style="enable-background:new 0 0 24 24;" xml:space="preserve">
<path id="XMLID_643_" style="fill:none;" d="M0,0h24v24H0V0z"/>
<polygon id="XMLID_809_" style="fill:#2196F3;" points="12,14 16,10 13,10 13,4 11,4 11,10 8,10 "/>
<path id="XMLID_808_" style="fill:#2196F3;" d="M20,6h-5v2h5v10H4V8h5V6L7,4H4C2.9,4,2,4.9,2,6l0,12c0,1.1,0.9,2,2,2h16
	c1.1,0,2-0.9,2-2V8C22,6.9,21.1,6,20,6z"/>
</svg>
