<?xml version="1.0" encoding="utf-8"?>
<!-- Generator: Adobe Illustrator 19.0.0, SVG Export Plug-In . SVG Version: 6.00 Build 0)  -->
<svg version="1.1" id="Layer_1" xmlns="http://www.w3.org/2000/svg" xmlns:xlink="http://www.w3.org/1999/xlink" x="0px" y="0px"
	 viewBox="0 0 24 24" style="enable-background:new 0 0 24 24;" xml:space="preserve">
<rect id="XMLID_2968_" style="fill:none;" width="24" height="24"/>
<polygon id="XMLID_2967_" style="fill:#1976D2;" points="19,15 23,19 19,23 "/>
<path id="XMLID_2964_" style="fill:#1976D2;" d="M15,18v-1c0-1.7-1.3-3-3-3s-3,1.3-3,3v1H8v5h8v-5H15z M10.5,17
	c0-0.8,0.7-1.5,1.5-1.5s1.5,0.7,1.5,1.5v1h-3V17z"/>
<path id="XMLID_2961_" style="fill:#1976D2;" d="M1,4v16h4v-2H3V7.2l9,6l9-6V13h2V4H1z M12,10.8L4.8,6h14.4L12,10.8z"/>
</svg>
