<?xml version="1.0" encoding="utf-8"?>
<!-- Generator: Adobe Illustrator 19.0.0, SVG Export Plug-In . SVG Version: 6.00 Build 0)  -->
<svg version="1.1" id="Layer_1" xmlns="http://www.w3.org/2000/svg" xmlns:xlink="http://www.w3.org/1999/xlink" x="0px" y="0px"
	 viewBox="0 0 24 24" style="enable-background:new 0 0 24 24;" xml:space="preserve">
<rect id="XMLID_80_" style="fill:none;" width="24" height="24"/>
<g id="XMLID_3859_">
	<rect id="XMLID_3865_" style="fill:none;" width="24" height="24"/>
</g>
<rect id="XMLID_228_" x="15.5" y="11.5" style="fill:#BABABA;" width="1.5" height="1"/>
<rect id="XMLID_3_" x="11.5" y="15.5" style="fill:#BABABA;" width="1" height="1.5"/>
<rect id="XMLID_9_" x="14.3" y="8.5" transform="matrix(0.7071 -0.7071 0.7071 0.7071 -1.9654 13.2448)" style="fill:#BABABA;" width="1.5" height="1"/>
<rect id="XMLID_10_" x="14.3" y="14.5" transform="matrix(-0.7071 -0.7071 0.7071 -0.7071 15.0052 36.2258)" style="fill:#BABABA;" width="1.5" height="1"/>
<g id="XMLID_4_">
	
		<rect id="XMLID_5_" x="8.2" y="14.5" transform="matrix(-0.7071 0.7071 -0.7071 -0.7071 25.9653 19.2554)" style="fill:none;" width="1.5" height="1"/>
	<rect id="XMLID_6_" x="7" y="11.5" style="fill:none;" width="1.5" height="1"/>
	<rect id="XMLID_7_" x="11.5" y="7" style="fill:none;" width="1" height="1.5"/>
	
		<rect id="XMLID_8_" x="8.2" y="8.5" transform="matrix(0.7071 0.7071 -0.7071 0.7071 8.9948 -3.7258)" style="fill:none;" width="1.5" height="1"/>
	<path id="XMLID_11_" style="fill:none;" d="M14.5,12c0,1.4-1.1,2.5-2.5,2.5c-0.5,0-1-0.2-1.4-0.4L6,21h12v-8V3l-4.6,6.9
		C14.1,10.4,14.5,11.1,14.5,12z"/>
	<path id="XMLID_21_" style="fill:#BABABA;" d="M4,1v22h16V1H4z M11.5,7h1v1.5h-1V7z M8.8,8.1l1.1,1.1L9.2,9.9L8.1,8.8L8.8,8.1z
		 M9.9,14.8l-1.1,1.1l-0.7-0.7l1.1-1.1L9.9,14.8z M7,11.5h1.5v1H7V11.5z M18,13v8H6l4.6-6.9c-0.7-0.4-1.1-1.2-1.1-2.1
		c0-1.4,1.1-2.5,2.5-2.5c0.5,0,1,0.2,1.4,0.4L18,3V13z"/>
	<path id="XMLID_26_" style="fill:#BABABA;" d="M14.5,12c0-0.9-0.4-1.6-1.1-2.1l-2.8,4.2c0.4,0.3,0.9,0.4,1.4,0.4
		C13.4,14.5,14.5,13.4,14.5,12z"/>
</g>
</svg>
