<?xml version="1.0" encoding="utf-8"?>
<!-- Generator: Adobe Illustrator 19.0.0, SVG Export Plug-In . SVG Version: 6.00 Build 0)  -->
<svg version="1.1" id="Layer_1" xmlns="http://www.w3.org/2000/svg" xmlns:xlink="http://www.w3.org/1999/xlink" x="0px" y="0px"
	 viewBox="0 0 24 24" style="enable-background:new 0 0 24 24;" xml:space="preserve">
<path id="XMLID_640_" style="fill:none;" d="M0,0h24v24H0V0z"/>
<path id="XMLID_3_" style="fill:#FFFFFF;" d="M19,12c0,3.9-3,7-7,7v-3l-4,4l4,4v-3c5,0,9-4,9-9c0-2.5-1-4.7-2.6-6.4L17,7
	C18.2,8.3,19,10.1,19,12z"/>
<path id="XMLID_2_" style="fill:#FFFFFF;" d="M5,12c0-3.9,3.1-7,7-7v3l4-4l-4-4v3c-5,0-9,4-9,9c0,2.5,1,4.7,2.6,6.4L7,17
	C5.8,15.7,5,13.9,5,12z"/>
</svg>
